<svg width="60" height="60" viewBox="0 0 60 60" fill="currentColor" xmlns="http://www.w3.org/2000/svg">
    <path fill-rule="evenodd" clip-rule="evenodd" d="M0 29.9275C0 46.4561 13.399 59.8551 29.9275 59.8551C46.4561 59.8551 59.8551 46.4561 59.8551 29.9275C59.8551 13.399 46.4561 0 29.9275 0C13.399 0 0 13.399 0 29.9275ZM54.0625 29.9274C54.0625 43.2568 43.2568 54.0625 29.9274 54.0625C16.5979 54.0625 5.79225 43.2568 5.79225 29.9274C5.79225 16.5979 16.5979 5.79225 29.9274 5.79225C43.2568 5.79225 54.0625 16.5979 54.0625 29.9274Z" fill="currentColor"/>
    <path d="M18.2008 34.9141L2.49609 26.3836L2.83331 22.4443L18.0909 30.732L29.7811 23.6765L43.5268 30.7873L57.9199 23.3415L59.8572 26.4108L43.5268 34.8588L29.9391 27.8297L18.2008 34.9141Z" fill="currentColor"/>
</svg>
