<svg width="32" height="32" viewBox="0 0 32 32" fill="none" xmlns="http://www.w3.org/2000/svg">
    <path fill-rule="evenodd" clip-rule="evenodd" d="M0 15.9994C0 24.8357 7.16319 31.9989 15.9994 31.9989C24.8357 31.9989 31.9989 24.8357 31.9989 15.9994C31.9989 7.16319 24.8357 0 15.9994 0C7.16319 0 0 7.16319 0 15.9994ZM28.9024 15.9996C28.9024 23.1256 23.1256 28.9024 15.9996 28.9024C8.87361 28.9024 3.09685 23.1256 3.09685 15.9996C3.09685 8.87361 8.87361 3.09685 15.9996 3.09685C23.1256 3.09685 28.9024 8.87361 28.9024 15.9996Z" fill="#B3B3B3"/>
    <path d="M9.7298 18.6655L1.33398 14.105L1.51426 11.999L9.67103 16.4296L15.9207 12.6577L23.2692 16.4592L30.9639 12.4787L31.9996 14.1195L23.2692 18.6358L16.0052 14.878L9.7298 18.6655Z" fill="#B3B3B3"/>
    </svg>
    