<svg width="70" height="100" viewBox="0 0 70 100" fill="none" xmlns="http://www.w3.org/2000/svg">
    <path d="M70 34.8012C70 56.0286 49.2029 82.867 35 100C20.7971 82.867 0 56.0286 0 34.8012C0 15.581 15.67 0 35 0C54.33 0 70 15.581 70 34.8012Z" fill="#5AD1E5"/>
    <path fill-rule="evenodd" clip-rule="evenodd" d="M5.07178 35.5086C5.07178 52.0371 18.4708 65.4361 34.9993 65.4361C51.5278 65.4361 64.9268 52.0371 64.9268 35.5086C64.9268 18.9801 51.5278 5.58105 34.9993 5.58105C18.4708 5.58105 5.07178 18.9801 5.07178 35.5086ZM59.1346 35.5088C59.1346 48.8382 48.3289 59.6439 34.9995 59.6439C21.67 59.6439 10.8644 48.8382 10.8644 35.5088C10.8644 22.1793 21.67 11.3737 34.9995 11.3737C48.3289 11.3737 59.1346 22.1793 59.1346 35.5088Z" fill="white"/>
    <path d="M23.2706 40.4952L7.56592 31.9647L7.90313 28.0254L23.1607 36.313L34.8509 29.2575L48.5966 36.3684L62.9897 28.9226L64.927 31.9918L48.5966 40.4398L35.0089 33.4107L23.2706 40.4952Z" fill="white"/>
    </svg>
    