<svg width="11" height="15" viewBox="0 0 11 15" fill="none" xmlns="http://www.w3.org/2000/svg">
  <mask id="path-1-inside-1_273_2688" fill="white">
  <path d="M11 5.22018C11 8.40428 7.73188 12.4301 5.5 15C3.26812 12.4301 0 8.40428 0 5.22018C0 2.33716 2.46243 0 5.5 0C8.53757 0 11 2.33716 11 5.22018Z"/>
  </mask>
  <path d="M11 5.22018C11 8.40428 7.73188 12.4301 5.5 15C3.26812 12.4301 0 8.40428 0 5.22018C0 2.33716 2.46243 0 5.5 0C8.53757 0 11 2.33716 11 5.22018Z" fill="none"/>
  <path d="M5.5 15L3.98996 16.3114L5.5 18.0502L7.01004 16.3114L5.5 15ZM9 5.22018C9 6.21638 8.45094 7.61134 7.39868 9.26815C6.38684 10.8613 5.09415 12.4172 3.98996 13.6886L7.01004 16.3114C8.13774 15.0129 9.59504 13.2709 10.7752 11.4126C11.915 9.61806 13 7.40809 13 5.22018H9ZM7.01004 13.6886C5.90585 12.4172 4.61316 10.8613 3.60132 9.26815C2.54906 7.61134 2 6.21638 2 5.22018H-2C-2 7.40809 -0.915001 9.61806 0.224765 11.4126C1.40496 13.2709 2.86227 15.0129 3.98996 16.3114L7.01004 13.6886ZM2 5.22018C2 3.53884 3.46732 2 5.5 2V-2C1.45755 -2 -2 1.13547 -2 5.22018H2ZM5.5 2C7.53268 2 9 3.53884 9 5.22018H13C13 1.13547 9.54245 -2 5.5 -2V2Z" fill="#B3B3B3" mask="url(#path-1-inside-1_273_2688)"/>
  <circle cx="5.5" cy="5.5" r="1.5" fill="#B3B3B3"/>
  </svg>
  